<svg xmlns="http://www.w3.org/2000/svg" width="15.363" height="15.363" viewBox="0 0 15.363 15.363">
  <path id="パス_146" data-name="パス 146" d="M2395.427,2022.682a7.682,7.682,0,1,1-7.682-7.682A7.69,7.69,0,0,1,2395.427,2022.682Zm-1.336,0a6.346,6.346,0,1,0-6.346,6.346A6.353,6.353,0,0,0,2394.091,2022.682Zm-5.678.379v-3.107a.668.668,0,1,0-1.336,0v3.107a.668.668,0,0,0,1.336,0Zm-.077,2.774a.839.839,0,1,0-.591.244A.845.845,0,0,0,2388.337,2025.834Z" transform="translate(-2380.064 -2015)" fill="#d11f2e"/>
</svg>
